<svg id="Camada_1" data-name="Camada 1" xmlns="http://www.w3.org/2000/svg" viewBox="0 0 24 22.79"><path d="M421.07,295.94a2.74,2.74,0,0,1,1.81.66,1.7,1.7,0,0,1,0,2.64,2.85,2.85,0,0,1-3.62,0,1.7,1.7,0,0,1,0-2.64A2.74,2.74,0,0,1,421.07,295.94Zm0-2a4,4,0,1,0,4.43,4A4.22,4.22,0,0,0,421.07,294Z" transform="translate(-409.06 -286.52)" fill="#fff"/><path d="M430.35,299.28a7.53,7.53,0,0,0,.12-1.35v0a7.34,7.34,0,0,0-.12-1.34l2.7-1.56a11.06,11.06,0,0,0-2.43-4.33,11.49,11.49,0,0,0-1.53-1.42l-2.84,1.65a10,10,0,0,0-1.72-.81V287a13.21,13.21,0,0,0-3.47-.45c-.51,0-1.48.08-1.48.08s-1.35.19-2,.37v3.12a9.22,9.22,0,0,0-1.74.81L413,289.25a12.05,12.05,0,0,0-1.52,1.42,11.07,11.07,0,0,0-2.43,4.33l2.7,1.56a7.42,7.42,0,0,0-.12,1.34v0a7.37,7.37,0,0,0,.12,1.35l-2.67,1.56a11,11,0,0,0,2.43,4.32,12.91,12.91,0,0,0,1.52,1.43l2.85-1.65a9.89,9.89,0,0,0,1.74.81v3.11a14.28,14.28,0,0,0,2,.38,12.32,12.32,0,0,0,1.48.07,13.66,13.66,0,0,0,3.48-.45l0-3.11a8.23,8.23,0,0,0,1.72-.81l2.85,1.65a13.84,13.84,0,0,0,1.53-1.43,11,11,0,0,0,2.42-4.32Zm-1.5,4.87-2.69-1.56a7.8,7.8,0,0,1-3.62,1.63v3a12,12,0,0,1-1.47.09,12.12,12.12,0,0,1-1.48-.09v-3a7.89,7.89,0,0,1-3.63-1.63l-2.69,1.56a9.74,9.74,0,0,1-1.74-2.44l2.59-1.5a5.67,5.67,0,0,1,0-4.61l-2.59-1.5a9.32,9.32,0,0,1,1.74-2.44l2.69,1.56a7.81,7.81,0,0,1,3.63-1.64v-3a14.68,14.68,0,0,1,1.48-.08,14.32,14.32,0,0,1,1.47.08v3a7.91,7.91,0,0,1,3.62,1.64l2.69-1.56a9.32,9.32,0,0,1,1.74,2.44l-2.59,1.5a5.56,5.56,0,0,1,0,4.61l.17.09,2.42,1.39A9.14,9.14,0,0,1,428.85,304.15Z" transform="translate(-409.06 -286.52)" fill="#fff"/></svg>