<svg id="Camada_1" data-name="Camada 1" xmlns="http://www.w3.org/2000/svg" viewBox="0 0 16.88 15.2"><path d="M421.5,292a.68.68,0,0,0-.89,0l-6.32,5.23a.72.72,0,0,0-.26.54v7.86h-1.41v-7.86a2.1,2.1,0,0,1,.77-1.62l6.32-5.23a2.11,2.11,0,0,1,2.69,0l6.33,5.24a2.1,2.1,0,0,1,.77,1.63v7.85h-1.41v-7.85a.73.73,0,0,0-.25-.55Z" transform="translate(-412.62 -290.4)" fill="#2c3357" fill-rule="evenodd"/><path d="M421.06,300.81a2,2,0,0,0-2,1.86h-1.41a3.43,3.43,0,0,1,6.86,0h-1.4A2,2,0,0,0,421.06,300.81Z" transform="translate(-412.62 -290.4)" fill="#2c3357" fill-rule="evenodd"/><path d="M417.63,305.6v-2.93H419v2.93Z" transform="translate(-412.62 -290.4)" fill="#2c3357" fill-rule="evenodd"/><path d="M423.09,305.6v-2.93h1.4v2.93Z" transform="translate(-412.62 -290.4)" fill="#2c3357" fill-rule="evenodd"/></svg>