<svg id="Camada_1" data-name="Camada 1" xmlns="http://www.w3.org/2000/svg" viewBox="0 0 12.97 18"><path d="M427.34,302l-1.5-2.45V296a4.81,4.81,0,0,0-.6-2.65,5,5,0,0,0-1.93-1.93,2.94,2.94,0,0,0,0-.42,2.14,2.14,0,0,0-.19-.83,2.32,2.32,0,0,0-.49-.7,2.29,2.29,0,0,0-.73-.45,2.18,2.18,0,0,0-.84-.14,2.22,2.22,0,0,0-.84.14,2.24,2.24,0,0,0-.72.45,2.19,2.19,0,0,0-.5.7,2.34,2.34,0,0,0-.19.83,2.94,2.94,0,0,0,0,.42,4.9,4.9,0,0,0-2.53,4.58v3.48l-1.5,2.45a1.36,1.36,0,0,0-.2.71,1.39,1.39,0,0,0,.18.71,1.41,1.41,0,0,0,.51.52,1.36,1.36,0,0,0,.71.2h2a3,3,0,0,0,1,2,3.26,3.26,0,0,0,4.23,0,3.09,3.09,0,0,0,1-2h2a1.32,1.32,0,0,0,.7-.2,1.44,1.44,0,0,0,.52-.52,1.38,1.38,0,0,0,.17-.71A1.36,1.36,0,0,0,427.34,302ZM420.22,291a.77.77,0,0,1,.28-.53.76.76,0,0,1,.56-.18.78.78,0,0,1,.57.18.77.77,0,0,1,.28.53,6,6,0,0,0-.85,0A5.89,5.89,0,0,0,420.22,291Zm.84,14.47a1.6,1.6,0,0,1-1.12-.37,1.67,1.67,0,0,1-.57-1h3.38a1.62,1.62,0,0,1-.57,1A1.57,1.57,0,0,1,421.06,305.5ZM416,302.69l1.5-2.44.21-.35V296a4.44,4.44,0,0,1,.67-2.38,3.84,3.84,0,0,1,4.21-1,2.89,2.89,0,0,1,1.19,1,4.45,4.45,0,0,1,.68,2.38v3.87l.2.35,1.51,2.44Z" transform="translate(-414.58 -288.91)" fill="#2c3357"/></svg>