<svg id="Camada_1" data-name="Camada 1" xmlns="http://www.w3.org/2000/svg" viewBox="0 0 19.48 14.88"><path d="M429.36,294.47a1.15,1.15,0,0,0-.47-1.78,5.77,5.77,0,0,0-2-.65,18.47,18.47,0,0,0-12.72,3.4,5.63,5.63,0,0,0-1.41,1.57,1.36,1.36,0,0,0-.2,1,1.38,1.38,0,0,0,.68.77,5.48,5.48,0,0,0,2,.66A18.59,18.59,0,0,0,428,296,5.45,5.45,0,0,0,429.36,294.47Zm-7.14,5.61c5.34-1.43,9.15-4.54,8.51-6.93s-5.49-3.17-10.83-1.74-9.15,4.53-8.51,6.92S416.88,301.51,422.22,300.08Z" transform="translate(-411.32 -290.69)" fill="#2c3357" fill-rule="evenodd"/><path d="M427.6,298c.24.15.27.26.28.28s0,.14-.1.38a3.33,3.33,0,0,1-.84.93,12,12,0,0,1-8.21,2.2,3.44,3.44,0,0,1-1.19-.38c-.24-.15-.27-.26-.28-.28a.59.59,0,0,1,.1-.38,3.33,3.33,0,0,1,.84-.93,12,12,0,0,1,8.21-2.2A3.37,3.37,0,0,1,427.6,298Zm-5.81-1.2c3.58-1,6.83-.43,7.26,1.17s-2.13,3.68-5.7,4.64-6.82.43-7.25-1.17S418.22,297.76,421.79,296.8Z" transform="translate(-411.32 -290.69)" fill="#2c3357" fill-rule="evenodd"/><path d="M426.26,302.89a2,2,0,0,1-.25.23,5.88,5.88,0,0,1-2.13,1,5.81,5.81,0,0,1-2.35.2l-.34-.07a3,3,0,0,1,.25-.24,5.85,5.85,0,0,1,2.14-1,6,6,0,0,1,2.35-.2A2,2,0,0,1,426.26,302.89Zm-3-1.05c2.13-.57,4.06-.26,4.31.7s-1.26,2.18-3.38,2.75-4.05.26-4.31-.69S421.14,302.41,423.26,301.84Z" transform="translate(-411.32 -290.69)" fill="#2c3357" fill-rule="evenodd"/></svg>