<svg id="Camada_1" data-name="Camada 1" xmlns="http://www.w3.org/2000/svg" viewBox="0 0 16.24 23.25"><path d="M421.08,295.89a4.81,4.81,0,1,1,4.5-4.8A4.66,4.66,0,0,1,421.08,295.89Zm0-1.87a2.94,2.94,0,1,1,2.63-2.93A2.79,2.79,0,0,1,421.08,294Z" transform="translate(-412.94 -286.29)" fill="#fff" fill-rule="evenodd"/><path d="M427.34,304.7c0-2.73-2.66-5.19-6.28-5.19s-6.28,2.46-6.28,5.19v4.84h-1.84V304.7c0-4,3.78-7,8.12-7s8.12,3,8.12,7v4.84h-1.84Z" transform="translate(-412.94 -286.29)" fill="#fff"/></svg>