<svg id="Camada_1" data-name="Camada 1" xmlns="http://www.w3.org/2000/svg" viewBox="0 0 171.92 43.75"><path d="M386.76,287.62a3.22,3.22,0,0,0-1.34-5,15.67,15.67,0,0,0-5.64-1.84c-4.95-.79-11.64-.41-18.81,1.5s-13.16,4.9-17.05,8a15.56,15.56,0,0,0-3.95,4.39,3.21,3.21,0,0,0,1.34,5,15.54,15.54,0,0,0,5.63,1.84c4.95.79,11.64.41,18.82-1.5s13.16-4.9,17-8A15.49,15.49,0,0,0,386.76,287.62Zm-20.12,15.69c15.05-4,25.79-12.68,24-19.38s-15.48-8.89-30.53-4.88-25.8,12.68-24,19.38S351.58,307.32,366.64,303.31Z" transform="translate(-335.9 -277.04)" fill="#fafafa" fill-rule="evenodd"/><path d="M381.8,297.51c.66.41.76.71.78.78s.09.38-.29,1.07a9.29,9.29,0,0,1-2.36,2.61,34.08,34.08,0,0,1-23.13,6.15,9.52,9.52,0,0,1-3.36-1.08c-.67-.41-.77-.71-.79-.78s-.08-.38.29-1.07a9.37,9.37,0,0,1,2.37-2.6,34,34,0,0,1,23.12-6.16A9.51,9.51,0,0,1,381.8,297.51Zm-16.38-3.36c10.09-2.68,19.24-1.22,20.45,3.27s-6,10.3-16.06,13-19.23,1.22-20.45-3.27S355.34,296.83,365.42,294.15Z" transform="translate(-335.9 -277.04)" fill="#fafafa" fill-rule="evenodd"/><path d="M378,311.19a8.09,8.09,0,0,1-.7.65,18.87,18.87,0,0,1-12.64,3.36,5.58,5.58,0,0,1-.93-.22,6.83,6.83,0,0,1,.7-.65A19,19,0,0,1,377.07,311,5.73,5.73,0,0,1,378,311.19Zm-8.44-2.93c6-1.59,11.42-.72,12.14,1.94s-3.55,6.12-9.54,7.71-11.42.72-12.14-1.94S363.58,309.85,369.57,308.26Z" transform="translate(-335.9 -277.04)" fill="#fafafa" fill-rule="evenodd"/><path d="M396.46,287.38h4v12.1h3.28v-12.1h4v-3H396.46Z" transform="translate(-335.9 -277.04)" fill="#fafafa"/><path d="M411.14,283.88a1.84,1.84,0,0,0,0,3.67A1.84,1.84,0,0,0,411.14,283.88Zm1.59,15.6V288.8h-3.17v10.68Z" transform="translate(-335.9 -277.04)" fill="#fafafa"/><path d="M418.7,293.77c0-1.47.74-2.37,1.88-2.37s1.69.71,1.69,2.16v5.92h3.18v-5.77c.06-3,3.57-3.11,3.57-.2v6h3.18v-6.7c0-2.66-1.42-4.26-3.86-4.26a3.77,3.77,0,0,0-3.46,1.86,3.23,3.23,0,0,0-3.15-1.86,3.3,3.3,0,0,0-3,1.62V288.8h-3.17v10.68h3.17Z" transform="translate(-335.9 -277.04)" fill="#fafafa"/><path d="M442.24,295.87a2.57,2.57,0,0,1-2.31,1.3,2.51,2.51,0,0,1-2.58-2.16h7.89a5.74,5.74,0,0,0-5.44-6.49,5.62,5.62,0,1,0,.13,11.24,5.25,5.25,0,0,0,5-2.83ZM437.37,293a2.41,2.41,0,0,1,2.41-2,2.3,2.3,0,0,1,2.4,2Z" transform="translate(-335.9 -277.04)" fill="#fafafa"/><path d="M456.2,299.48V291.4h2v-2.6h-2v-3.13H453v3.13h-1.72v2.6H453v8.08Z" transform="translate(-335.9 -277.04)" fill="#fafafa"/><path d="M467.13,288.63a1.87,1.87,0,0,0-.54-.06,3.22,3.22,0,0,0-3.09,2V288.8h-3.13v10.68h3.15v-4.35c0-2.09,1-3.39,2.81-3.39a1.94,1.94,0,0,1,.8.13Z" transform="translate(-335.9 -277.04)" fill="#fafafa"/><path d="M468.15,296.6c0,1.91,1.39,3.16,3.55,3.16a3.52,3.52,0,0,0,3.13-1.49l0,1.21h2.94v-6.87c0-2.62-1.65-4.09-4.64-4.09a4.47,4.47,0,0,0-4.61,3.11l2.83.7a1.72,1.72,0,0,1,1.76-1.34,1.43,1.43,0,0,1,1.59,1.42v.37l-2.68.37C469.46,293.51,468.15,294.68,468.15,296.6Zm3.09-.21c0-.67.5-1.06,1.52-1.19l2-.28v.43a2,2,0,0,1-2.2,2C471.76,297.38,471.26,297,471.24,296.39Z" transform="translate(-335.9 -277.04)" fill="#fafafa"/><path d="M483.69,299.48h2.91L491,288.8h-3.27l-2.52,6.75-2.52-6.75h-3.36Z" transform="translate(-335.9 -277.04)" fill="#fafafa"/><path d="M499.58,295.87a2.6,2.6,0,0,1-2.31,1.3,2.52,2.52,0,0,1-2.59-2.16h7.9a7.69,7.69,0,0,0,0-.78,5.36,5.36,0,0,0-5.48-5.71,5.62,5.62,0,1,0,.13,11.24,5.24,5.24,0,0,0,5-2.83ZM494.7,293a2.42,2.42,0,0,1,2.42-2,2.29,2.29,0,0,1,2.39,2Z" transform="translate(-335.9 -277.04)" fill="#fafafa"/><path d="M504.65,284.35v15.13h3.18V284.35Z" transform="translate(-335.9 -277.04)" fill="#fafafa"/><path d="M433.83,318.2h-1.25V313h1.25v.69a1.85,1.85,0,0,1,1.61-.82,2,2,0,0,1,2.05,2.2v3.12h-1.25v-2.89c0-.8-.4-1.29-1.18-1.29s-1.23.56-1.23,1.44ZM438.4,316V313h1.25v2.88c0,.82.41,1.31,1.11,1.31s1.11-.49,1.11-1.31V313h1.23V316a2.35,2.35,0,1,1-4.7,0Zm5.08-2.95h1.33l1.42,3.61,1.43-3.61H449l-2.17,5.19h-1.11ZM454,317a2.57,2.57,0,0,1-2.39,1.34,2.72,2.72,0,0,1-.06-5.44,2.59,2.59,0,0,1,2.63,2.72,2.83,2.83,0,0,1,0,.38H450.1a1.49,1.49,0,0,0,1.52,1.31,1.46,1.46,0,0,0,1.34-.78Zm-1.06-1.89a1.37,1.37,0,0,0-1.42-1.2,1.45,1.45,0,0,0-1.41,1.2Zm3.16,3.11h-1.25V313h1.25v.69a1.65,1.65,0,0,1,1.51-.82,1.7,1.7,0,0,1,1.61,1,2,2,0,0,1,1.76-1,1.88,1.88,0,0,1,1.93,2.13v3.18h-1.25v-2.94c0-.76-.36-1.23-1-1.23s-1.12.53-1.13,1.38v2.8h-1.25v-2.91c0-.81-.36-1.29-1-1.29s-1.13.55-1.13,1.44v2.76Zm8.32-1.71a1.13,1.13,0,0,0,1.05.79c.4,0,.72-.17.72-.53s-.18-.44-.61-.56l-.64-.2c-.89-.28-1.35-.78-1.35-1.51a1.67,1.67,0,0,1,1.82-1.58,2.07,2.07,0,0,1,1.93,1.17l-1,.53a1.06,1.06,0,0,0-.91-.69c-.36,0-.65.18-.65.48s.19.43.6.56l.63.2c1,.32,1.39.83,1.39,1.51a1.75,1.75,0,0,1-1.94,1.67,2.05,2.05,0,0,1-2-1.32Zm4.86,1.71H468v-7.12h1.25v2.62a1.85,1.85,0,0,1,1.62-.82,2,2,0,0,1,2,2.2v3.12h-1.25v-2.89c0-.8-.4-1.29-1.17-1.29s-1.24.56-1.24,1.44Zm10-2.6a2.82,2.82,0,1,1-2.81-2.72A2.71,2.71,0,0,1,479.23,315.6Zm-4.38,0a1.57,1.57,0,1,0,1.57-1.6A1.57,1.57,0,0,0,474.85,315.6ZM481.2,313v.75a2.19,2.19,0,0,1,1.79-.86,2.72,2.72,0,0,1,0,5.43,2.15,2.15,0,0,1-1.79-.84v2.65H480V313Zm1.53,1a1.61,1.61,0,1,0,1.58,1.61A1.59,1.59,0,0,0,482.73,314Zm-59.43-4.87h0a6,6,0,0,0-4.15,1.65,4.79,4.79,0,0,0-1.81-.36,4.54,4.54,0,1,0,0,9.08,4.78,4.78,0,0,0,1.8-.36,6,6,0,0,0,4.14,1.65,5.83,5.83,0,1,0,0-11.66Zm0,10.37a4.59,4.59,0,0,1-4.63-4.54h-1.32a5.68,5.68,0,0,0,.92,3.12,3.57,3.57,0,0,1-.92.12,3.24,3.24,0,1,1,0-6.48,3.32,3.32,0,0,1,2,.65,3.19,3.19,0,0,1,1.32,2.59H422a4.48,4.48,0,0,0-1.66-3.48,4.78,4.78,0,0,1,3-1.06,4.54,4.54,0,1,1,0,9.08Z" transform="translate(-335.9 -277.04)" fill="#fafafa"/><path d="M397.45,316.78h.88v-.51a1.54,1.54,0,0,0,1.27.6,2,2,0,0,0,0-3.91,1.54,1.54,0,0,0-1.27.63v-2.13h-.88Zm3.08-1.86a1.12,1.12,0,1,1-1.12-1.16A1.12,1.12,0,0,1,400.53,314.92Z" transform="translate(-335.9 -277.04)" fill="#fafafa"/><path d="M402.53,318.46c.64,0,1.05-.36,1.41-1.24l1.74-4.16h-.91l-1,2.68-1-2.68h-.94l1.5,3.66-.16.39c-.18.42-.37.57-.69.57a.85.85,0,0,1-.39-.08v.75A1.18,1.18,0,0,0,402.53,318.46Z" transform="translate(-335.9 -277.04)" fill="#fafafa"/></svg>