<svg id="Camada_1" data-name="Camada 1" xmlns="http://www.w3.org/2000/svg" viewBox="0 0 202.07 51.79"><path d="M380.74,285.73a4.51,4.51,0,0,0,.68-3.34,4.57,4.57,0,0,0-2.25-2.54,18.3,18.3,0,0,0-6.63-2.18c-5.81-.94-13.67-.49-22.11,1.77s-15.46,5.8-20,9.52a18.26,18.26,0,0,0-4.65,5.2,3.81,3.81,0,0,0,1.57,5.88,18.57,18.57,0,0,0,6.63,2.18c5.82.94,13.68.48,22.11-1.78s15.47-5.79,20-9.51A18.47,18.47,0,0,0,380.74,285.73ZM357.1,304.31c17.69-4.75,30.31-15,28.19-22.95s-18.2-10.52-35.89-5.78-30.32,15-28.19,22.95S339.4,309.05,357.1,304.31Z" transform="translate(-320.98 -273.21)" fill="#2c3357" fill-rule="evenodd"/><path d="M374.91,297.44c.79.48.91.84.93.92s.1.45-.34,1.26a11,11,0,0,1-2.79,3.09A39.8,39.8,0,0,1,345.54,310a10.9,10.9,0,0,1-4-1.28c-.78-.48-.9-.84-.92-.92s-.1-.45.34-1.26a11,11,0,0,1,2.78-3.09A39.85,39.85,0,0,1,371,296.16,11.11,11.11,0,0,1,374.91,297.44Zm-19.24-4c11.85-3.18,22.61-1.44,24,3.87s-7,12.19-18.88,15.36-22.6,1.45-24-3.87S343.82,296.63,355.67,293.46Z" transform="translate(-320.98 -273.21)" fill="#2c3357" fill-rule="evenodd"/><path d="M370.46,313.62a8.09,8.09,0,0,1-.82.77,22,22,0,0,1-14.86,4,7.18,7.18,0,0,1-1.09-.25,6.38,6.38,0,0,1,.82-.77,19.75,19.75,0,0,1,7.07-3.33,19.51,19.51,0,0,1,7.78-.65A7.06,7.06,0,0,1,370.46,313.62Zm-9.92-3.46c7-1.88,13.43-.86,14.27,2.3s-4.17,7.24-11.21,9.12-13.42.86-14.27-2.29S353.51,312.05,360.54,310.16Z" transform="translate(-320.98 -273.21)" fill="#2c3357" fill-rule="evenodd"/><path d="M392.15,285.44h4.73v14.32h3.86V285.44h4.71v-3.58h-13.3Z" transform="translate(-320.98 -273.21)" fill="#2c3357"/><path d="M409.4,281.3a2.18,2.18,0,0,0,0,4.35A2.18,2.18,0,0,0,409.4,281.3Zm1.87,18.46V287.13h-3.73v12.63Z" transform="translate(-320.98 -273.21)" fill="#2c3357"/><path d="M418.29,293c0-1.74.87-2.81,2.2-2.81s2,.84,2,2.56v7h3.74v-6.82c.08-3.61,4.19-3.69,4.19-.23v7.05h3.74v-7.92c0-3.15-1.67-5-4.53-5a4.41,4.41,0,0,0-4.07,2.2,3.78,3.78,0,0,0-3.7-2.2,3.85,3.85,0,0,0-3.56,1.92v-1.59h-3.73v12.63h3.73Z" transform="translate(-320.98 -273.21)" fill="#2c3357"/><path d="M446,295.49a3.11,3.11,0,0,1-5.75-1h9.28a7,7,0,0,0,.06-.92c0-4-2.64-6.75-6.45-6.75a6.65,6.65,0,0,0,.15,13.3,6.16,6.16,0,0,0,5.86-3.35ZM440.23,292a2.83,2.83,0,0,1,2.83-2.33,2.71,2.71,0,0,1,2.82,2.33Z" transform="translate(-320.98 -273.21)" fill="#2c3357"/><path d="M462.37,299.76V290.2h2.3v-3.07h-2.3v-3.71h-3.74v3.71h-2v3.07h2v9.56Z" transform="translate(-320.98 -273.21)" fill="#2c3357"/><path d="M475.21,286.93a1.81,1.81,0,0,0-.64-.08,3.78,3.78,0,0,0-3.63,2.35v-2.07h-3.68v12.63H471v-5.14c0-2.48,1.23-4,3.3-4a2.22,2.22,0,0,1,.95.15Z" transform="translate(-320.98 -273.21)" fill="#2c3357"/><path d="M476.41,296.36c0,2.25,1.63,3.74,4.16,3.74a4.14,4.14,0,0,0,3.69-1.77l0,1.43h3.46v-8.13c0-3.09-1.95-4.83-5.45-4.83-2.74,0-4.81,1.43-5.42,3.68l3.32.82a2,2,0,0,1,2.07-1.59,1.69,1.69,0,0,1,1.87,1.69v.44l-3.15.43C477.94,292.71,476.41,294.09,476.41,296.36Zm3.63-.25c0-.8.59-1.26,1.79-1.41l2.3-.33v.51a2.37,2.37,0,0,1-2.58,2.4C480.65,297.28,480.06,296.82,480,296.11Z" transform="translate(-320.98 -273.21)" fill="#2c3357"/><path d="M494.67,299.76h3.43l5.14-12.63H499.4l-3,8-3-8h-3.94Z" transform="translate(-320.98 -273.21)" fill="#2c3357"/><path d="M513.34,295.49a3,3,0,0,1-2.71,1.54,3,3,0,0,1-3-2.56h9.28a7.33,7.33,0,0,0,0-.92c0-4-2.63-6.75-6.44-6.75a6.65,6.65,0,0,0,.15,13.3,6.16,6.16,0,0,0,5.86-3.35ZM507.61,292a2.84,2.84,0,0,1,2.84-2.33,2.7,2.7,0,0,1,2.81,2.33Z" transform="translate(-320.98 -273.21)" fill="#2c3357"/><path d="M519.31,281.86v17.9H523v-17.9Z" transform="translate(-320.98 -273.21)" fill="#2c3357"/><path d="M436.06,321.93H434.6v-6.15h1.46v.82a2.19,2.19,0,0,1,1.9-1,2.31,2.31,0,0,1,2.41,2.6v3.7H438.9v-3.42c0-1-.47-1.54-1.38-1.54s-1.46.67-1.46,1.71Zm5.39-2.65v-3.5h1.46v3.42c0,1,.48,1.54,1.3,1.54s1.3-.58,1.3-1.54v-3.42H447v3.5a2.76,2.76,0,1,1-5.52,0Zm6-3.5H449l1.66,4.27,1.68-4.27h1.52l-2.55,6.15H450Zm12.36,4.7a3,3,0,0,1-2.81,1.59,3.22,3.22,0,0,1-.07-6.44,3.05,3.05,0,0,1,3.09,3.22c0,.11,0,.26,0,.44h-4.78a1.75,1.75,0,0,0,1.79,1.56,1.7,1.7,0,0,0,1.57-.92Zm-1.24-2.24a1.62,1.62,0,0,0-1.67-1.42,1.72,1.72,0,0,0-1.66,1.42Zm3.72,3.69h-1.47v-6.15h1.47v.82a1.92,1.92,0,0,1,1.77-1,2,2,0,0,1,1.89,1.15,2.31,2.31,0,0,1,2.07-1.15,2.21,2.21,0,0,1,2.26,2.52v3.77h-1.47v-3.48c0-.9-.42-1.47-1.18-1.47s-1.32.64-1.33,1.65v3.31h-1.47v-3.45c0-1-.42-1.52-1.19-1.52s-1.33.65-1.33,1.7v3.27Zm9.77-2a1.34,1.34,0,0,0,1.24.94c.46,0,.84-.21.84-.64s-.21-.51-.71-.66l-.76-.23c-1.05-.34-1.58-.93-1.58-1.79a2,2,0,0,1,2.14-1.87,2.46,2.46,0,0,1,2.27,1.39l-1.18.62a1.26,1.26,0,0,0-1.08-.81c-.41,0-.75.21-.75.56s.22.52.7.67l.74.23c1.16.39,1.63,1,1.63,1.8a2.06,2.06,0,0,1-2.27,2,2.45,2.45,0,0,1-2.41-1.56Zm5.71,2h-1.46v-8.44h1.46v3.11a2.19,2.19,0,0,1,1.9-1,2.31,2.31,0,0,1,2.41,2.6v3.7h-1.47v-3.42c0-1-.47-1.54-1.38-1.54s-1.46.67-1.46,1.71Zm11.7-3.08a3.31,3.31,0,1,1-3.31-3.22A3.2,3.2,0,0,1,489.43,318.85Zm-5.15,0a1.85,1.85,0,1,0,1.84-1.89A1.85,1.85,0,0,0,484.28,318.85Zm7.46-3.07v.89a2.57,2.57,0,0,1,2.11-1,3.22,3.22,0,0,1,0,6.43,2.52,2.52,0,0,1-2.11-1v3.13h-1.45v-8.44Zm1.8,1.18a1.91,1.91,0,1,0,1.86,1.9A1.85,1.85,0,0,0,493.54,317Zm-69.85-5.77h0a7,7,0,0,0-4.88,2,5.37,5.37,0,1,0,0,9.88,6.94,6.94,0,1,0,4.88-11.84Zm0,12.27a5.42,5.42,0,0,1-5.44-5.37h-1.55a6.79,6.79,0,0,0,1.08,3.69,4.39,4.39,0,0,1-1.08.15,3.84,3.84,0,1,1,0-7.68,3.9,3.9,0,0,1,3.89,3.84h1.55a5.26,5.26,0,0,0-1.95-4.11,5.48,5.48,0,0,1,3.5-1.26,5.37,5.37,0,1,1,0,10.74Z" transform="translate(-320.98 -273.21)" fill="#2c2f4b"/><path d="M393.31,320.24h1v-.6a1.79,1.79,0,0,0,1.49.71,2.32,2.32,0,0,0,0-4.62,1.84,1.84,0,0,0-1.49.73V314h-1Zm3.63-2.2a1.32,1.32,0,1,1-1.32-1.37A1.33,1.33,0,0,1,396.94,318Z" transform="translate(-320.98 -273.21)" fill="#272d4d"/><path d="M399.28,322.23c.75,0,1.23-.42,1.66-1.46l2-4.93h-1.07L400.67,319l-1.2-3.17h-1.1l1.76,4.34-.19.45c-.21.51-.44.68-.81.68a1.14,1.14,0,0,1-.46-.09v.89A1.56,1.56,0,0,0,399.28,322.23Z" transform="translate(-320.98 -273.21)" fill="#272d4d"/></svg>